<?xml version="1.0" encoding="iso-8859-1"?>

<!DOCTYPE svg PUBLIC "-//W3C//DTD SVG 1.1//EN" "http://www.w3.org/Graphics/SVG/1.1/DTD/svg11.dtd">
<!-- Uploaded to: SVG Repo, www.svgrepo.com, Generator: SVG Repo Mixer Tools -->
<svg height="800px" width="800px" version="1.1" id="_x35_" xmlns="http://www.w3.org/2000/svg" xmlns:xlink="http://www.w3.org/1999/xlink" 
	 viewBox="0 0 512 512"  xml:space="preserve">
<g>
	<g>
		<g>
			<path style="fill:#BE955D;" d="M512,259.599c0,0-75.96-189.421-109.717-226.771C368.526-4.528,306.638,3.48,256,3.48
				c-50.638,0-112.526-8.008-146.283,29.349C75.954,70.178,0,259.599,0,259.599l47.828,10.673l-14.072,72.035l59.079-5.343
				l1.405,60.025l52.043-6.666l8.44,56.031l56.269-21.346L256,467.696l45.007-42.687l56.27,21.346l8.44-56.031l52.043,6.666
				l1.405-60.025l59.079,5.343l-14.066-72.035L512,259.599z"/>
			<polygon style="fill:#D5AD79;" points="165.98,307.34 199.743,383.301 256,383.301 256,307.34 			"/>
			<g>
				<polygon style="fill:#D5AD79;" points="256,110.419 151.914,85.103 97.055,215.916 168.796,318.597 256,245.452 				"/>
				<polygon style="fill:#E4BC8C;" points="256,194.814 256,329.853 188.481,360.794 149.105,329.853 219.428,197.623 				"/>
			</g>
			<g>
				<polygon style="fill:#936538;" points="256,276.399 208.177,276.399 208.177,312.971 256,329.853 				"/>
			</g>
			<polygon style="fill:#D5AD79;" points="346.026,307.34 312.27,383.301 256,383.301 256,307.34 			"/>
			<g>
				<polygon style="fill:#D5AD79;" points="256,110.419 360.086,85.103 414.944,215.916 343.204,318.597 256,245.452 				"/>
				<polygon style="fill:#E4BC8C;" points="256,194.814 256,329.853 323.519,360.794 362.907,329.853 292.566,197.623 				"/>
			</g>
			<g>
				<polygon style="fill:#936538;" points="256,276.399 303.828,276.399 303.828,312.971 256,329.853 				"/>
			</g>
			<g>
				<path style="fill:#A3764B;" d="M196.219,199.386c0,6.603-5.355,11.959-11.959,11.959c-6.597,0-11.946-5.355-11.946-11.959
					c0-6.604,5.349-11.953,11.946-11.953C190.863,187.433,196.219,192.782,196.219,199.386z"/>
				<path style="fill:#A3764B;" d="M336.877,199.386c0,6.603-5.349,11.959-11.953,11.959c-6.597,0-11.959-5.355-11.959-11.959
					c0-6.604,5.362-11.953,11.959-11.953C331.528,187.433,336.877,192.782,336.877,199.386z"/>
			</g>
		</g>
		<g>
			<g>
				<path style="fill:#E4BC8C;" d="M94.679,0C65.162,0,41.232,23.93,41.232,53.447c0,29.524,23.93,53.454,53.447,53.454
					c2.458,0,4.848-0.225,7.212-0.539l39.739-78.481C132.562,11.268,114.941,0,94.679,0z"/>
				<path style="fill:#A3764B;" d="M90.867,83.924c-11.607-3.462-20.092-14.242-20.092-26.959c0-15.514,12.617-28.131,28.126-28.131
					c6.239,0,12.166,2.063,16.982,5.707L90.867,83.924z"/>
			</g>
			<g>
				<path style="fill:#E4BC8C;" d="M417.315,0c29.524,0,53.46,23.93,53.46,53.447c0,29.524-23.936,53.454-53.46,53.454
					c-2.446,0-4.841-0.225-7.199-0.539l-39.733-78.481C379.444,11.268,397.066,0,417.315,0z"/>
				<path style="fill:#A3764B;" d="M421.133,83.924c11.614-3.462,20.099-14.242,20.099-26.959c0-15.514-12.623-28.131-28.132-28.131
					c-6.233,0-12.165,2.063-16.975,5.707L421.133,83.924z"/>
			</g>
		</g>
	</g>
	<path style="opacity:0.08;fill:#A3764B;" d="M512,259.599c0,0-36.321-90.578-69.902-158.812
		c17.038-8.943,28.677-26.765,28.677-47.34C470.775,23.93,446.839,0,417.315,0c-14.774,0-28.138,6.02-37.808,15.721
		C344.71-1.681,296.724,3.48,256,3.48v464.216l45.007-42.687l56.27,21.346l8.44-56.031l52.043,6.666l1.405-60.025l59.079,5.343
		l-14.066-72.035L512,259.599z"/>
</g>
</svg>